<!DOCTYPE svg PUBLIC "-//W3C//DTD SVG 1.1//EN" "http://www.w3.org/Graphics/SVG/1.1/DTD/svg11.dtd">

<svg width="200px" height="200px" viewBox="0 0 256 256" version="1.1" xmlns="http://www.w3.org/2000/svg"
  xmlns:xlink="http://www.w3.org/1999/xlink" preserveAspectRatio="xMidYMid" fill="#000000" stroke="#000000"
  stroke-width="0">

  <path transform="translate(-25.6,-25.6)"
    d="M153.6,282.8342710971832C176.16730633816954,289.54927207760494,201.33339461395474,294.98063555877917,223.13328341500986,286.0846026345211C245.15574267258322,277.09774382912104,262.79628701777335,257.0450333117604,271.2646423584583,234.81803844597684C279.3760350948638,213.52796765262508,269.86395659699525,190.25683156660227,268.30286690141276,167.52744958044855C267.01363728179507,148.7563356751583,266.99779870814086,130.52077085091616,262.8410063300204,112.17035103602694C258.1868717317621,91.62438289901439,258.9614345281691,66.39011738668178,242.4338959225726,53.32725999687782C225.76059127012067,40.14919361390273,200.56987708288614,51.83934089814168,179.95783791074726,46.66204789949996C159.22642967303568,41.45477200482925,142.63493034717655,20.55473340716534,121.39125861939858,22.923999387227923C100.22390965750381,25.284753235535284,86.2619466458604,45.499800790930195,69.7503234899352,58.95328069627961C52.614327653582976,72.91549225267568,33.155390197057244,84.57214809197878,22.181021065617518,103.75935547127041C10.44066844308757,124.28578189054834,3.880646395307268,148.0016485157637,5.317896626138548,171.60470706802238C6.789376086951862,195.76989078271544,11.552249254422435,223.44089096194526,30.394409477949164,238.6426788133596C49.713808488508505,254.22950122073092,79.48544746288373,241.91328359401996,102.85102686590143,250.2940896441209C122.04507068084695,257.1786421628324,134.05549389969033,277.01871758544394,153.6,282.8342710971832"
    fill="#fafafa" strokewidth="0" />

  <g id="SVGRepo_bgCarrier" stroke-width="0" />
  <path
    d="M218.123122,218.127392 L180.191928,218.127392 L180.191928,158.724263 C180.191928,144.559023 179.939053,126.323993 160.463756,126.323993 C140.707926,126.323993 137.685284,141.757585 137.685284,157.692986 L137.685284,218.123441 L99.7540894,218.123441 L99.7540894,95.9665207 L136.168036,95.9665207 L136.168036,112.660562 L136.677736,112.660562 C144.102746,99.9650027 157.908637,92.3824528 172.605689,92.9280076 C211.050535,92.9280076 218.138927,118.216023 218.138927,151.114151 L218.123122,218.127392 Z M56.9550587,79.2685282 C44.7981969,79.2707099 34.9413443,69.4171797 34.9391618,57.260052 C34.93698,45.1029244 44.7902948,35.2458562 56.9471566,35.2436736 C69.1040185,35.2414916 78.9608713,45.0950217 78.963054,57.2521493 C78.9641017,63.090208 76.6459976,68.6895714 72.5186979,72.8184433 C68.3913982,76.9473153 62.7929898,79.26748 56.9550587,79.2685282 M75.9206558,218.127392 L37.94995,218.127392 L37.94995,95.9665207 L75.9206558,95.9665207 L75.9206558,218.127392 Z M237.033403,0.0182577091 L18.8895249,0.0182577091 C8.57959469,-0.0980923971 0.124827038,8.16056231 -0.001,18.4706066 L-0.001,237.524091 C0.120519052,247.839103 8.57460631,256.105934 18.8895249,255.9977 L237.033403,255.9977 C247.368728,256.125818 255.855922,247.859464 255.999,237.524091 L255.999,18.4548016 C255.851624,8.12438979 247.363742,-0.133792868 237.033403,0.000790807055"
    fill="#0072b1" />
</svg>